# xmcd
#
# Track frame offsets: 
#        150
#        9042
#        18985
#        30125
#        40875
#        53672
#        64222
#        75107
#        87935
#        101630
#        112862
#        125860
#        136852
#        147995
#        159967
#        172150
#        181092
#        190715
#        200387
#        212887
#        222477
#        235280
#        249245
#        261737
#        273965
#        284202
#        294877
#        307072
#        320450
#        336297
#
# Disc length: 4663 seconds
#
# Revision: 1
# Processed by: cddbd v1.5.2PL0 Copyright (c) Steve Scherf et al.
# Submitted via: ExactAudioCopy v1.1
#
DISCID=ae12351e
DTITLE=Brenda Lee - Little Miss Dynamite (Bear Family) - Disc 2
DYEAR=1995
DGENRE=Pop
TTITLE0=Just Because (mono)
TTITLE1=Side By Side (stereo)
TTITLE2=A Good Man Is Hard To Find (stereo)
TTITLE3=Some Of These Days (mono)
TTITLE4=Back In Your Own Backyard (mono)
TTITLE5=Toot Toot Tootsie Goodbye (stereo)
TTITLE6=Sweet Nothin's (stereo)
TTITLE7=(If I'm Dreaming) Just Let Me Dream (stereo)
TTITLE8=Weep No More My Baby (stereo)
TTITLE9=That's All You Gotta Do (stereo)
TTITLE10=I Want to Be Wanted (Per Tutta La Vita) (mono)
TTITLE11=Just A Little (stereo)
TTITLE12=Build A Big Fence (stereo)
TTITLE13=Be My Love Again (stereo)
TTITLE14=I'm Sorry (stereo)
TTITLE15=Dynamite (1960) (stereo)
TTITLE16=Love And Learn (stereo)
TTITLE17=Wee Wee Willie (stereo)
TTITLE18=Jambalaya (On The Bayou) (1960) (stereo)
TTITLE19=Do I Worry (Yes I Do) (stereo)
TTITLE20=Emotions (stereo)
TTITLE21=I Want to Be Wanted (Per Tutta La Vita) (stereo)
TTITLE22=No One (stereo)
TTITLE23=Crazy Talk (stereo)
TTITLE24=The Big Chance (stereo)
TTITLE25=It's Never Too Late (stereo)
TTITLE26=I'm Learning About Love (stereo)
TTITLE27=Careless, That's All (stereo)
TTITLE28=We Three (My Echo, My Shadow And Me) (stereo)
TTITLE29=If I Didn't Care (stereo)
EXTD=
EXTT0=
EXTT1=
EXTT2=
EXTT3=
EXTT4=
EXTT5=
EXTT6=
EXTT7=
EXTT8=
EXTT9=
EXTT10=
EXTT11=
EXTT12=
EXTT13=
EXTT14=
EXTT15=
EXTT16=
EXTT17=
EXTT18=
EXTT19=
EXTT20=
EXTT21=
EXTT22=
EXTT23=
EXTT24=
EXTT25=
EXTT26=
EXTT27=
EXTT28=
EXTT29=
PLAYORDER=
